<svg xmlns="http://www.w3.org/2000/svg" xmlns:xlink="http://www.w3.org/1999/xlink" xml:space="preserve" style="shape-rendering:geometricPrecision;text-rendering:geometricPrecision;image-rendering:optimizeQuality;" viewBox="0 0 6.82666 8.533325000000001" x="0px" y="0px" fill-rule="evenodd" clip-rule="evenodd"><defs><style type="text/css">
   
    .fil1 {fill:none}
    .fil0 {fill:black;fill-rule:nonzero}
   
  </style></defs><g><g><path class="fil0" d="M0.922378 2.07885l1.8597 0.504441c0.0240394,0.00651969 0.0397559,0.0284803 0.039374,0.0522953l0 2.51539c0,0.0361102 -0.0350709,0.0614331 -0.0690433,0.0509803l-1.8597 -0.504445c-0.0240394,-0.00651969 -0.0397559,-0.0284803 -0.039374,-0.0522953l0 -2.51539c0,-0.0361102 0.0350709,-0.0614331 0.0690433,-0.0509803zm1.79241 0.596689l-1.75478 -0.476 0 2.40573 1.75478 0.476004 0 -2.40573z"/><path class="fil0" d="M3.47892 1.90378l-1.65205 0.426362c-0.0284173,0.00724803 -0.0455787,0.0361654 -0.0383307,0.0645827 0.00724803,0.0284173 0.0361654,0.0455787 0.0645827,0.0383307l1.84426 -0.475969 0.718803 0.175382 -1.66202 0.450819c-0.0240394,0.00651969 -0.0397559,0.0284803 -0.039374,0.0522953l0 2.51539c0,0.0294528 0.0238819,0.0533346 0.0533346,0.0533346 0.0054685,0 0.0107441,-0.000826772 0.0157087,-0.00235433l1.85971 -0.504445c0.0240394,-0.00651969 0.0397559,-0.0284803 0.039374,-0.0522953l0 -0.721232c-0.00324016,3.93701e-005 -0.00648031,6.29921e-005 -0.00972047,6.29921e-005 -0.0323819,0 -0.0647638,-0.00197244 -0.0969488,-0.00590157l0 0.687118 -1.75479 0.476004 0 -2.40573 1.75479 -0.476 0 0.138886c0.032185,-0.00392913 0.0645669,-0.00590157 0.0969488,-0.00590157 0.00324016,0 0.00648031,1.9685e-005 0.00972047,5.90551e-005l0 -0.202752c0,-0.0266142 -0.0195,-0.0486811 -0.0449921,-0.052685l-0.928295 -0.2265 -0.924677 -0.225618c-0.00944488,-0.00314567 -0.0197835,-0.00359843 -0.0294252,-0.0010315l-1.86135 0.454165c-0.0285315,0.00690157 -0.0460669,0.0356339 -0.0391654,0.0641654 0.00690157,0.0285315 0.0356339,0.0460669 0.0641654,0.0391654l1.84895 -0.451138 0.710795 0.173429z"/><path class="fil0" d="M3.89488 4.27143l0.512402 -0.156047c0.0340394,-0.0113465 0.069437,0.0167126 0.0688071,0.051811l0 0.309248c0,0.025752 -0.0182559,0.0472441 -0.0425315,0.0522402l-0.512402 0.156047c-0.0344488,0.0114843 -0.0694449,-0.0163583 -0.0688071,-0.0518071l0 -0.309252c0,-0.025752 0.0182559,-0.0472441 0.0425315,-0.0522402zm0.474539 -0.0334567l-0.410402 0.124984 0 0.199181 0.410402 -0.124984 0 -0.199181z"/><path class="fil0" d="M1.16683 4.43715l0.410402 0.124984 0 -0.199185 -0.410402 -0.124984 0 0.199185zm0.448264 0.247575l-0.512402 -0.156047c-0.0242756,-0.00499606 -0.0425315,-0.0264882 -0.0425315,-0.0522402l0 -0.309252c-0.000677165,-0.0375079 0.0329685,-0.060626 0.0688071,-0.051811l0.512402 0.156047c0.0242756,0.00499606 0.0425315,0.0264882 0.0425315,0.0522402l0 0.309256c0.000653543,0.0362205 -0.0336496,0.0622244 -0.0688071,0.0518071z"/><path class="fil0" d="M4.11051 2.5656c0.155382,-0.155382 0.359039,-0.233079 0.562685,-0.233079 0.203646,0 0.407303,0.0776969 0.562685,0.233079 0.155382,0.155382 0.233079,0.359039 0.233079,0.562685 0,0.187035 -0.0655472,0.374079 -0.196622,0.523724l0.685382 0.685386c0.0208228,0.0208228 0.0208228,0.0545945 0,0.0754173 -0.0208228,0.0208228 -0.0545945,0.0208228 -0.0754173,0l-0.685382 -0.685386c-0.14965,0.131071 -0.336689,0.196622 -0.523724,0.196622 -0.203646,0 -0.407303,-0.0776969 -0.562685,-0.233079 -0.155382,-0.155382 -0.233079,-0.359039 -0.233079,-0.562685 0,-0.203646 0.0776969,-0.407303 0.233079,-0.562685zm0.562685 -0.126409c-0.176358,0 -0.35272,0.0672795 -0.487268,0.201827 -0.134547,0.134547 -0.201827,0.310909 -0.201827,0.487268 0,0.176358 0.0672795,0.35272 0.201827,0.487268 0.134547,0.134547 0.310909,0.201827 0.487268,0.201827 0.176358,0 0.35272,-0.0672795 0.487268,-0.201827 0.134547,-0.134547 0.201827,-0.310909 0.201827,-0.487268 0,-0.176358 -0.0672795,-0.35272 -0.201827,-0.487268 -0.134547,-0.134547 -0.310909,-0.201827 -0.487268,-0.201827z"/></g></g><rect class="fil1" width="6.82666" height="6.82666"/><text x="0" y="21.82666" fill="#000000" font-size="5px" font-weight="bold" font-family="'Helvetica Neue', Helvetica, Arial-Unicode, Arial, Sans-serif">Created by Graphic Nehar</text><text x="0" y="26.82666" fill="#000000" font-size="5px" font-weight="bold" font-family="'Helvetica Neue', Helvetica, Arial-Unicode, Arial, Sans-serif">from the Noun Project</text></svg>