<svg viewBox="0 0 32 32" id="social_flag-us" xmlns="http://www.w3.org/2000/svg">
  <path d="M32 16c0-3-.8-5.8-2.3-8.2v-.1c0-.1-.1-.1-.1-.2C26.7 3 21.7 0 16 0S5.3 3 2.4 7.6c0 .1-.1.1-.1.2v.1C.8 10.2 0 13 0 16s.8 5.8 2.3 8.2v.1c0 .1.1.1.1.2C5.3 29 10.3 32 16 32c5.7 0 10.7-3 13.5-7.5.1-.1.1-.2.2-.3v-.1C31.2 21.8 32 19 32 16zM2.1 17h6c.1 1.4.2 2.7.5 3.9-1.7.4-3.3 1-4.9 1.6-1-1.6-1.5-3.5-1.6-5.5zm1.5-7.6c1.6.7 3.2 1.2 4.9 1.6-.2 1.3-.4 2.6-.5 4H2c.2-2 .7-3.9 1.6-5.6zM29.9 15h-6c-.1-1.4-.2-2.7-.5-3.9 1.7-.4 3.3-1 4.9-1.6 1 1.6 1.5 3.5 1.6 5.5zM22 15h-5v-3c1.5 0 3-.2 4.5-.5.3 1.1.4 2.2.5 3.5zm-5-5V3c1.2 1.2 3 3.2 4 6.5-1.3.3-2.6.4-4 .5zm-2-7v7c-1.4 0-2.7-.2-4-.4 1-3.3 2.8-5.4 4-6.6zm0 9v3h-5c.1-1.3.2-2.4.4-3.5 1.6.3 3.1.4 4.6.5zm-5 5h5v3c-1.5 0-3 .2-4.5.5-.3-1.1-.4-2.2-.5-3.5zm5 5v6.9c-1.2-1.2-3-3.3-4-6.5 1.3-.2 2.7-.3 4-.4zm2 7v-7c1.4 0 2.7.2 4 .4-1 3.3-2.8 5.4-4 6.6zm0-9v-3h5c-.1 1.3-.2 2.4-.4 3.5-1.6-.3-3.1-.4-4.6-.5zm7-3h6c-.1 2-.7 3.9-1.6 5.6-1.6-.7-3.2-1.2-4.9-1.6.2-1.3.4-2.6.5-4zm3.3-9.3c-1.4.6-2.8 1.1-4.3 1.4-1-3.1-2.5-5.3-3.8-6.8 3.3.8 6.1 2.8 8.1 5.4zM12.9 2.4C11.5 3.8 10 6 9 9.1c-1.5-.3-2.9-.8-4.3-1.4 2-2.6 4.8-4.6 8.2-5.3zM4.7 24.3c1.4-.6 2.8-1.1 4.3-1.4 1 3.1 2.5 5.3 3.8 6.8-3.3-.8-6.1-2.8-8.1-5.4zm14.4 5.3c1.3-1.4 2.9-3.6 3.8-6.8 1.4.4 2.9.8 4.3 1.4-1.9 2.7-4.7 4.7-8.1 5.4z"/></svg>
