<svg xmlns="http://www.w3.org/2000/svg" data-name="Layer 1" viewBox="0 0 90 112.5" x="0px" y="0px"><path d="M45,79a1,1,0,0,1-.8-.4C43.334,77.442,23,50.068,23,33a22,22,0,0,1,44,0c0,17.068-20.334,44.442-21.2,45.6A1,1,0,0,1,45,79Zm0-66A20.023,20.023,0,0,0,25,33c0,14.544,16.178,37.97,20,43.3C48.822,70.969,65,47.539,65,33A20.023,20.023,0,0,0,45,13Z"/><path d="M45,46A13,13,0,1,1,58,33,13.015,13.015,0,0,1,45,46Zm0-24A11,11,0,1,0,56,33,11.013,11.013,0,0,0,45,22Z"/><text x="0" y="105" fill="#000000" font-size="5px" font-weight="bold" font-family="'Helvetica Neue', Helvetica, Arial-Unicode, Arial, Sans-serif">Created by Tayyab Mahmood</text><text x="0" y="110" fill="#000000" font-size="5px" font-weight="bold" font-family="'Helvetica Neue', Helvetica, Arial-Unicode, Arial, Sans-serif">from the Noun Project</text></svg>